<svg width="379" height="227" viewBox="0 0 379 227" fill="none" xmlns="http://www.w3.org/2000/svg">
<path id="arrow-path" d="M1.16992 0.553711C27.2679 8.6999 54.3552 12.6547 80.856 19.252C93.0729 22.2933 105.216 25.6643 116.854 30.5234C122.412 32.8436 130.339 35.9432 133.718 41.4015C135.185 43.7709 134.854 46.8758 134.854 49.5274C134.854 55.5889 135.04 61.6916 134.679 67.7451C133.756 83.2001 128.464 99.7962 122.578 114.054C117.937 125.293 111.489 135.644 106.369 146.645C103.988 151.763 100.592 155.758 105.714 159.969C118.836 170.759 135.991 174.447 152.241 177.488C174.567 181.667 197.614 182.741 220.307 182.119C231.367 181.816 244.895 180.726 252.329 171.328C264.15 156.386 263.906 135.054 263.12 117.025C261.803 86.8064 245.964 57.9073 217.423 45.3771C213.192 43.5196 175.646 30.9022 179.24 44.7655C181.928 55.1319 192.378 64.0679 200.254 70.4974C215.108 82.6229 231.617 92.1359 248.966 100.161C263.215 106.753 278.995 113.242 291.168 123.403C296.488 127.844 297.072 133.618 295.536 140.179C293.212 150.11 283.402 158.407 275.79 164.382C263.478 174.045 249.4 181.286 235.816 188.934C228.413 193.102 215.975 197.466 211.656 205.623C211.309 206.279 214.409 209.172 214.54 209.293C220.761 215.04 229.31 217.742 237.301 219.909C260.153 226.106 287.591 228.882 310.565 221.613C327.42 216.279 348.611 206.112 355.083 188.279C360.944 172.128 358.093 153.113 353.816 136.99C349.133 119.34 342.687 102.11 335.991 85.1328C328.815 66.9391 319.183 42.7044 299.381 35.5037C295.297 34.0186 300.503 39.565 301.696 40.1346C309.112 43.6738 318.666 42.8315 326.555 42.4064C337.464 41.8184 347.92 40.2388 358.709 38.7366C364.059 37.9916 374.09 38.9084 377.844 35.1542" stroke="#FF3B30" stroke-linecap="round" stroke-linejoin="round"/>
</svg>
