<svg width="200" height="200" viewBox="0 0 200 200" fill="none" xmlns="http://www.w3.org/2000/svg">
<g id="cash-faq">
<g id="undraw_Credit_card_re_blml 1" clip-path="url(#clip0)">
<path id="Vector" d="M136.18 59.1951L52.3892 85.9614L54.6085 94.313L138.4 67.5467L136.18 59.1951Z" fill="#3F3D56"/>
<path id="Vector_2" d="M62.4004 124.324L50.0502 77.8501C49.9587 77.5056 49.9957 77.1352 50.1532 76.8206C50.3107 76.506 50.5757 76.2728 50.89 76.1725L132.65 50.055C132.964 49.9549 133.302 49.9956 133.589 50.1682C133.876 50.3408 134.088 50.6312 134.18 50.9755L145.121 92.1479L144.783 92.2561L133.842 51.0837C133.776 50.8378 133.624 50.6306 133.419 50.5073C133.214 50.384 132.973 50.3548 132.749 50.4261L50.9886 76.5436C50.7641 76.6153 50.5748 76.7818 50.4623 77.0066C50.3499 77.2313 50.3234 77.4958 50.3888 77.7419L62.739 124.216L62.4004 124.324Z" fill="#3F3D56"/>
<path id="Vector_3" d="M127.025 92.3388C126.777 92.3385 126.535 92.2501 126.337 92.0869C126.139 91.9238 125.994 91.6945 125.924 91.4335L123.853 83.6387C123.768 83.3188 123.802 82.9751 123.949 82.683C124.095 82.391 124.341 82.1745 124.632 82.0809L131.742 79.8098C132.034 79.717 132.347 79.7549 132.614 79.9152C132.88 80.0755 133.077 80.3451 133.163 80.6648L135.234 88.4596C135.319 88.7795 135.284 89.1232 135.138 89.4152C134.992 89.7073 134.746 89.9238 134.454 90.0174L127.345 92.2885C127.241 92.3218 127.133 92.3387 127.025 92.3388V92.3388Z" fill="#6C63FF"/>
<path id="Vector_4" d="M62.2093 77.9934C62.188 77.9133 62.1627 77.8345 62.1334 77.7575C61.9346 77.2285 61.5646 76.7988 61.0943 76.5508C60.6241 76.3028 60.0868 76.2541 59.5858 76.414C59.0848 76.5739 58.6554 76.9312 58.38 77.4172C58.1047 77.9032 58.0029 78.4836 58.0941 79.0469C58.107 79.1291 58.124 79.2104 58.1453 79.2905C58.274 79.7723 58.5417 80.1954 58.9081 80.4965C59.2746 80.7976 59.7202 80.9604 60.1781 80.9606C60.3781 80.9611 60.577 80.9299 60.7688 80.8678C61.3071 80.6954 61.761 80.296 62.031 79.7571C62.3011 79.2182 62.3652 78.584 62.2093 77.9934V77.9934ZM60.6701 80.4967C60.2212 80.6395 59.7389 80.5814 59.3291 80.335C58.9192 80.0885 58.6153 79.674 58.4838 79.1822C58.4631 79.1021 58.4466 79.0208 58.4344 78.9386C58.3682 78.4745 58.4586 77.9999 58.6884 77.6035C58.9183 77.2071 59.272 76.9161 59.6834 76.7848C60.0948 76.6536 60.5357 76.6911 60.9236 76.8904C61.3116 77.0897 61.6201 77.4371 61.7914 77.8677C61.8233 77.9433 61.8499 78.0215 61.8708 78.1016C62.0009 78.5938 61.9475 79.1224 61.7224 79.5715C61.4973 80.0206 61.1188 80.3533 60.6701 80.4967V80.4967Z" fill="#6C63FF"/>
<path id="Vector_5" d="M57.0199 79.6499C56.9071 79.2251 56.9179 78.7722 57.0509 78.3544C57.1839 77.9367 57.4324 77.5748 57.7619 77.3192C57.4532 77.3027 57.1454 77.3673 56.8642 77.5076C56.5829 77.648 56.3363 77.8599 56.1449 78.1259C55.9535 78.3919 55.8228 78.7042 55.7638 79.0368C55.7047 79.3693 55.719 79.7126 55.8055 80.0378C55.8919 80.3631 56.048 80.6611 56.2607 80.9068C56.4734 81.1526 56.7366 81.339 57.0284 81.4507C57.3202 81.5623 57.632 81.5959 57.938 81.5486C58.244 81.5014 58.5353 81.3746 58.7876 81.1789C58.3845 81.1574 57.9976 80.9985 57.6807 80.7244C57.3638 80.4503 57.1328 80.0747 57.0199 79.6499V79.6499Z" fill="#6C63FF"/>
<path id="Vector_6" d="M111.829 89.2303C111.791 89.0824 111.728 88.944 111.641 88.8231C111.555 88.7023 111.448 88.6012 111.326 88.5258C111.204 88.4504 111.069 88.4021 110.93 88.3837C110.791 88.3653 110.65 88.3771 110.515 88.4184L98.8099 92.0082L97.5493 92.3948H105.466L106.726 92.0082L111.09 90.6705C111.362 90.5867 111.593 90.388 111.731 90.118C111.87 89.848 111.905 89.5287 111.829 89.2303V89.2303Z" fill="#CCCCCC"/>
<path id="Vector_7" d="M103.548 86.549C103.472 86.2507 103.29 85.9977 103.044 85.8458C102.798 85.6939 102.506 85.6555 102.234 85.7391L84.6699 91.1246C84.4245 91.2008 84.212 91.3707 84.0707 91.6036C83.9294 91.8364 83.8687 92.117 83.8994 92.3946H88.4465L89.7089 92.008L102.809 87.9911C103.081 87.907 103.312 87.708 103.451 87.4376C103.589 87.1672 103.624 86.8476 103.548 86.549V86.549Z" fill="#CCCCCC"/>
<path id="Vector_8" d="M148.766 92.0076H63.6063C63.2791 92.008 62.9653 92.1507 62.734 92.4043C62.5026 92.658 62.3724 93.002 62.3721 93.3607V148.647C62.3724 149.006 62.5026 149.349 62.7339 149.603C62.9653 149.857 63.279 150 63.6063 150H148.766C149.093 150 149.407 149.857 149.638 149.603C149.87 149.349 150 149.006 150 148.647V93.3607C150 93.002 149.87 92.658 149.638 92.4044C149.407 92.1507 149.093 92.008 148.766 92.0076V92.0076ZM149.648 148.647C149.647 148.903 149.555 149.149 149.389 149.33C149.224 149.511 149 149.613 148.766 149.613H63.6063C63.3725 149.613 63.1483 149.511 62.983 149.33C62.8177 149.149 62.7248 148.903 62.7247 148.647V93.3607C62.7248 93.1044 62.8177 92.8586 62.983 92.6774C63.1483 92.4962 63.3725 92.3943 63.6063 92.3942H148.766C149 92.3943 149.224 92.4962 149.389 92.6774C149.555 92.8586 149.647 93.1044 149.648 93.3607V148.647Z" fill="#3F3D56"/>
<path id="Vector_9" d="M71.8921 99.5471C71.4737 99.5471 71.0646 99.4111 70.7167 99.1562C70.3687 98.9013 70.0976 98.539 69.9374 98.1151C69.7773 97.6913 69.7354 97.2248 69.817 96.7749C69.8987 96.3249 70.1002 95.9116 70.3961 95.5871C70.692 95.2627 71.069 95.0418 71.4794 94.9523C71.8898 94.8628 72.3152 94.9087 72.7018 95.0843C73.0884 95.2599 73.4188 95.5572 73.6513 95.9387C73.8838 96.3201 74.0079 96.7686 74.0079 97.2274C74.0073 97.8424 73.7841 98.432 73.3875 98.8669C72.9908 99.3018 72.4531 99.5464 71.8921 99.5471V99.5471ZM71.8921 95.2943C71.5434 95.2943 71.2025 95.4077 70.9126 95.6201C70.6226 95.8325 70.3967 96.1344 70.2632 96.4877C70.1298 96.8409 70.0948 97.2296 70.1629 97.6045C70.2309 97.9795 70.3988 98.324 70.6454 98.5943C70.892 98.8647 71.2061 99.0488 71.5482 99.1233C71.8902 99.1979 72.2447 99.1597 72.5669 99.0133C72.889 98.867 73.1644 98.6193 73.3581 98.3014C73.5519 97.9835 73.6553 97.6097 73.6553 97.2274C73.6547 96.7149 73.4688 96.2236 73.1383 95.8612C72.8077 95.4988 72.3596 95.2949 71.8921 95.2943V95.2943Z" fill="#6C63FF"/>
<path id="Vector_10" d="M68.6038 97.2275C68.6039 96.785 68.7298 96.3535 68.9641 95.9932C69.1984 95.6329 69.5293 95.3617 69.9108 95.2173C69.6187 95.1068 69.3067 95.0745 69.0009 95.1229C68.695 95.1714 68.4042 95.2993 68.1525 95.496C67.9009 95.6926 67.6958 95.9524 67.5542 96.2536C67.4127 96.5547 67.3389 96.8887 67.3389 97.2275C67.3389 97.5663 67.4127 97.9002 67.5542 98.2014C67.6958 98.5025 67.9009 98.7623 68.1525 98.9589C68.4042 99.1556 68.695 99.2835 69.0009 99.332C69.3067 99.3804 69.6187 99.3481 69.9108 99.2376C69.5293 99.0932 69.1984 98.822 68.9641 98.4617C68.7298 98.1014 68.6039 97.6699 68.6038 97.2275V97.2275Z" fill="#6C63FF"/>
<path id="Vector_11" d="M80.4687 124.634C80.048 124.634 79.6446 124.45 79.3471 124.124C79.0497 123.798 78.8823 123.356 78.8818 122.894V117.675C78.8818 117.214 79.049 116.771 79.3466 116.445C79.6442 116.119 80.0478 115.935 80.4687 115.935C80.8895 115.935 81.2931 116.119 81.5907 116.445C81.8883 116.771 82.0555 117.214 82.0555 117.675V122.894C82.055 123.356 81.8877 123.798 81.5902 124.124C81.2927 124.45 80.8894 124.634 80.4687 124.634V124.634Z" fill="#6C63FF"/>
<path id="Vector_12" d="M84.7001 124.634C84.2794 124.634 83.8761 124.45 83.5786 124.124C83.2811 123.798 83.1138 123.356 83.1133 122.894V117.675C83.1133 117.214 83.2805 116.771 83.578 116.445C83.8756 116.119 84.2792 115.935 84.7001 115.935C85.121 115.935 85.5246 116.119 85.8222 116.445C86.1197 116.771 86.2869 117.214 86.2869 117.675V122.894C86.2864 123.356 86.1191 123.798 85.8216 124.124C85.5241 124.45 85.1208 124.634 84.7001 124.634V124.634Z" fill="#6C63FF"/>
<path id="Vector_13" d="M88.932 124.634C88.5113 124.634 88.108 124.45 87.8105 124.124C87.513 123.798 87.3457 123.356 87.3452 122.894V117.675C87.3452 117.214 87.5124 116.771 87.81 116.445C88.1076 116.119 88.5112 115.935 88.932 115.935C89.3529 115.935 89.7565 116.119 90.0541 116.445C90.3517 116.771 90.5189 117.214 90.5189 117.675V122.894C90.5184 123.356 90.3511 123.798 90.0536 124.124C89.7561 124.45 89.3528 124.634 88.932 124.634V124.634Z" fill="#6C63FF"/>
<path id="Vector_14" d="M95.4555 124.634C95.0348 124.634 94.6314 124.45 94.334 124.124C94.0365 123.798 93.8691 123.356 93.8687 122.894V117.675C93.8687 117.214 94.0358 116.771 94.3334 116.445C94.631 116.119 95.0346 115.935 95.4555 115.935C95.8763 115.935 96.2799 116.119 96.5775 116.445C96.8751 116.771 97.0423 117.214 97.0423 117.675V122.894C97.0418 123.356 96.8745 123.798 96.577 124.124C96.2795 124.45 95.8762 124.634 95.4555 124.634V124.634Z" fill="#6C63FF"/>
<path id="Vector_15" d="M99.6869 124.634C99.2662 124.634 98.8629 124.45 98.5654 124.124C98.2679 123.798 98.1006 123.356 98.1001 122.894V117.675C98.1001 117.214 98.2673 116.771 98.5649 116.445C98.8625 116.119 99.2661 115.935 99.6869 115.935C100.108 115.935 100.511 116.119 100.809 116.445C101.107 116.771 101.274 117.214 101.274 117.675V122.894C101.273 123.356 101.106 123.798 100.808 124.124C100.511 124.45 100.108 124.634 99.6869 124.634V124.634Z" fill="#6C63FF"/>
<path id="Vector_16" d="M103.918 124.634C103.498 124.634 103.094 124.45 102.797 124.124C102.499 123.798 102.332 123.356 102.332 122.894V117.675C102.332 117.214 102.499 116.771 102.796 116.445C103.094 116.119 103.498 115.935 103.918 115.935C104.339 115.935 104.743 116.119 105.04 116.445C105.338 116.771 105.505 117.214 105.505 117.675V122.894C105.505 123.356 105.337 123.798 105.04 124.124C104.742 124.45 104.339 124.634 103.918 124.634V124.634Z" fill="#6C63FF"/>
<path id="Vector_17" d="M110.442 124.634C110.022 124.634 109.618 124.45 109.321 124.124C109.023 123.798 108.856 123.356 108.855 122.894V117.675C108.855 117.214 109.023 116.771 109.32 116.445C109.618 116.119 110.021 115.935 110.442 115.935C110.863 115.935 111.267 116.119 111.564 116.445C111.862 116.771 112.029 117.214 112.029 117.675V122.894C112.029 123.356 111.861 123.798 111.564 124.124C111.266 124.45 110.863 124.634 110.442 124.634V124.634Z" fill="#6C63FF"/>
<path id="Vector_18" d="M114.674 124.634C114.253 124.634 113.85 124.45 113.552 124.124C113.255 123.798 113.087 123.356 113.087 122.894V117.675C113.087 117.214 113.254 116.771 113.552 116.445C113.849 116.119 114.253 115.935 114.674 115.935C115.095 115.935 115.498 116.119 115.796 116.445C116.093 116.771 116.261 117.214 116.261 117.675V122.894C116.26 123.356 116.093 123.798 115.795 124.124C115.498 124.45 115.094 124.634 114.674 124.634V124.634Z" fill="#6C63FF"/>
<path id="Vector_19" d="M118.905 124.634C118.484 124.634 118.081 124.45 117.784 124.124C117.486 123.798 117.319 123.356 117.318 122.894V117.675C117.318 117.214 117.486 116.771 117.783 116.445C118.081 116.119 118.484 115.935 118.905 115.935C119.326 115.935 119.73 116.119 120.027 116.445C120.325 116.771 120.492 117.214 120.492 117.675V122.894C120.492 123.356 120.324 123.798 120.027 124.124C119.729 124.45 119.326 124.634 118.905 124.634V124.634Z" fill="#6C63FF"/>
<path id="Vector_20" d="M125.429 124.634C125.008 124.634 124.605 124.45 124.307 124.124C124.01 123.798 123.842 123.356 123.842 122.894V117.675C123.842 117.214 124.009 116.771 124.307 116.445C124.604 116.119 125.008 115.935 125.429 115.935C125.849 115.935 126.253 116.119 126.551 116.445C126.848 116.771 127.015 117.214 127.015 117.675V122.894C127.015 123.356 126.848 123.798 126.55 124.124C126.253 124.45 125.849 124.634 125.429 124.634V124.634Z" fill="#6C63FF"/>
<path id="Vector_21" d="M129.661 124.634C129.24 124.634 128.837 124.45 128.539 124.124C128.242 123.798 128.074 123.356 128.074 122.894V117.675C128.074 117.214 128.241 116.771 128.539 116.445C128.836 116.119 129.24 115.935 129.661 115.935C130.081 115.935 130.485 116.119 130.783 116.445C131.08 116.771 131.247 117.214 131.247 117.675V122.894C131.247 123.356 131.08 123.798 130.782 124.124C130.485 124.45 130.081 124.634 129.661 124.634V124.634Z" fill="#6C63FF"/>
<path id="Vector_22" d="M133.892 124.634C133.471 124.634 133.068 124.45 132.77 124.124C132.473 123.798 132.306 123.356 132.305 122.894V117.675C132.305 117.214 132.472 116.771 132.77 116.445C133.068 116.119 133.471 115.935 133.892 115.935C134.313 115.935 134.716 116.119 135.014 116.445C135.312 116.771 135.479 117.214 135.479 117.675V122.894C135.478 123.356 135.311 123.798 135.014 124.124C134.716 124.45 134.313 124.634 133.892 124.634V124.634Z" fill="#6C63FF"/>
<path id="Vector_23" d="M91.2272 143.997H68.4051C68.1223 143.997 67.8511 143.874 67.6512 143.655C67.4512 143.436 67.3389 143.138 67.3389 142.828C67.3389 142.518 67.4512 142.221 67.6512 142.002C67.8511 141.782 68.1223 141.659 68.4051 141.659H91.2272C91.51 141.659 91.7812 141.782 91.9812 142.002C92.1811 142.221 92.2934 142.518 92.2934 142.828C92.2934 143.138 92.1811 143.436 91.9812 143.655C91.7812 143.874 91.51 143.997 91.2272 143.997Z" fill="#E6E6E6"/>
<path id="Vector_24" d="M83.9101 138.971H75.722C75.4392 138.971 75.168 138.848 74.9681 138.629C74.7681 138.41 74.6558 138.112 74.6558 137.802C74.6558 137.492 74.7681 137.195 74.9681 136.976C75.168 136.756 75.4392 136.633 75.722 136.633H83.9101C84.1928 136.633 84.4641 136.756 84.664 136.976C84.864 137.195 84.9763 137.492 84.9763 137.802C84.9763 138.112 84.864 138.41 84.664 138.629C84.4641 138.848 84.1928 138.971 83.9101 138.971V138.971Z" fill="#E6E6E6"/>
<path id="Vector_25" d="M149.584 103.564H62.6611V103.95H149.584V103.564Z" fill="#3F3D56"/>
</g>
</g>
<defs>
<clipPath id="clip0">
<rect width="100" height="100" fill="white" transform="translate(50 50)"/>
</clipPath>
</defs>
</svg>
