<svg width="280" height="220" viewBox="0 0 280 220" fill="none" xmlns="http://www.w3.org/2000/svg">
<g id="undraw_stepping_up_g6oo" clip-path="url(#clip0)">
<path id="Vector" d="M208.87 217.357C204.994 214.119 202.64 209.004 203.257 204.024C203.874 199.044 207.698 194.465 212.658 193.408C217.618 192.35 223.272 195.278 224.779 200.069C225.608 190.832 226.563 181.208 231.53 173.342C236.027 166.219 243.816 161.123 252.257 160.211C260.699 159.299 269.586 162.743 274.851 169.331C280.116 175.919 281.405 185.497 277.718 193.061C275.001 198.633 269.997 202.78 264.754 206.153C247.811 216.963 227.491 221.359 207.531 218.532" fill="#F2F2F2"/>
<path id="Vector_2" d="M266.503 162.934C259.538 168.544 253.148 174.818 247.426 181.665C238.471 192.345 231.225 204.32 225.939 217.171C225.552 218.108 227.092 218.517 227.475 217.589C236.123 196.703 249.928 178.295 267.629 164.047C268.424 163.407 267.292 162.299 266.503 162.934Z" fill="white"/>
<path id="Vector_3" d="M68.4564 219.574H46.4762C45.7335 219.573 45.0214 219.281 44.4963 218.761C43.9711 218.242 43.6757 217.538 43.6748 216.804V171.63C43.6757 170.896 43.9711 170.192 44.4963 169.672C45.0214 169.153 45.7335 168.861 46.4762 168.86H68.4564C69.1991 168.861 69.9112 169.153 70.4364 169.672C70.9616 170.192 71.257 170.896 71.2578 171.63V216.804C71.257 217.538 70.9616 218.242 70.4364 218.761C69.9112 219.281 69.1991 219.573 68.4564 219.574Z" fill="#6C63FF"/>
<path id="Vector_4" d="M120.606 220H98.6254C97.7685 219.999 96.9468 219.662 96.3409 219.063C95.7349 218.463 95.394 217.651 95.3931 216.804V129.014C95.394 128.166 95.7349 127.354 96.3409 126.755C96.9468 126.155 97.7685 125.818 98.6254 125.817H120.606C121.463 125.818 122.284 126.155 122.89 126.755C123.496 127.354 123.837 128.166 123.838 129.014V216.804C123.837 217.651 123.496 218.463 122.89 219.063C122.284 219.662 121.463 219.999 120.606 220V220ZM98.6254 126.67C97.997 126.67 97.3945 126.918 96.9501 127.357C96.5057 127.796 96.2557 128.392 96.255 129.014V216.804C96.2557 217.425 96.5057 218.021 96.9501 218.46C97.3945 218.9 97.997 219.147 98.6254 219.148H120.606C121.234 219.147 121.837 218.9 122.281 218.46C122.725 218.021 122.975 217.425 122.976 216.804V129.014C122.975 128.392 122.725 127.796 122.281 127.357C121.837 126.918 121.234 126.67 120.606 126.67H98.6254Z" fill="#3F3D56"/>
<path id="Vector_5" d="M172.755 220H150.774C149.917 219.999 149.096 219.662 148.49 219.063C147.884 218.464 147.543 217.651 147.542 216.804V73.186C147.543 72.3386 147.884 71.5261 148.49 70.9269C149.096 70.3277 149.917 69.9907 150.774 69.9897H172.755C173.612 69.9907 174.433 70.3277 175.039 70.9269C175.645 71.5261 175.986 72.3386 175.987 73.186V216.804C175.986 217.651 175.645 218.464 175.039 219.063C174.433 219.662 173.612 219.999 172.755 220V220ZM150.774 70.8421C150.146 70.8428 149.543 71.09 149.099 71.5294C148.655 71.9688 148.405 72.5646 148.404 73.186V216.804C148.405 217.425 148.655 218.021 149.099 218.46C149.543 218.9 150.146 219.147 150.774 219.148H172.755C173.383 219.147 173.986 218.9 174.43 218.46C174.874 218.021 175.124 217.425 175.125 216.804V73.186C175.124 72.5646 174.874 71.9688 174.43 71.5294C173.986 71.09 173.383 70.8428 172.755 70.8421H150.774Z" fill="#3F3D56"/>
<path id="Vector_6" d="M225.39 219.787H203.41C202.668 219.786 201.956 219.494 201.43 218.974C200.905 218.455 200.61 217.751 200.609 217.017V14.5882C200.61 13.8538 200.905 13.1497 201.43 12.6304C201.956 12.1111 202.668 11.819 203.41 11.8181H225.39C226.133 11.819 226.845 12.1111 227.37 12.6304C227.896 13.1497 228.191 13.8538 228.192 14.5882V217.017C228.191 217.751 227.896 218.455 227.37 218.974C226.845 219.494 226.133 219.786 225.39 219.787Z" fill="#6C63FF"/>
<path id="Vector_7" d="M88.6876 94.7614C88.7673 94.1399 88.7083 93.5087 88.5146 92.9121C88.3209 92.3156 87.9974 91.7683 87.5667 91.3089C87.136 90.8494 86.6086 90.4889 86.0218 90.2527C85.4349 90.0166 84.8028 89.9105 84.1701 89.9421L76.5086 76.0452L74.7847 82.0115L80.0336 94.7478C80.1576 95.7954 80.666 96.7616 81.4623 97.4634C82.2587 98.1652 83.2877 98.5538 84.3545 98.5554C85.4212 98.5571 86.4515 98.1718 87.2501 97.4726C88.0487 96.7733 88.5602 95.8086 88.6876 94.7614V94.7614Z" fill="#A0616A"/>
<path id="Vector_8" d="M29.6587 149.632L33.9259 152.713L47.9738 137.902L41.6754 133.356L29.6587 149.632Z" fill="#A0616A"/>
<path id="Vector_9" d="M39.2632 162.573L25.851 152.89L29.6341 147.766L37.8643 153.708C39.2387 154.7 40.1582 156.191 40.4205 157.854C40.6828 159.516 40.2665 161.214 39.2632 162.573V162.573L39.2632 162.573Z" fill="#2F2E41"/>
<path id="Vector_10" d="M52.2357 165.939L57.5196 165.939L60.0331 145.786L52.2349 145.787L52.2357 165.939Z" fill="#A0616A"/>
<path id="Vector_11" d="M67.71 170.79L51.1038 170.791L51.1035 164.446L61.2937 164.446C62.9953 164.446 64.6273 165.114 65.8305 166.304C67.0338 167.494 67.7099 169.107 67.71 170.79V170.79V170.79Z" fill="#2F2E41"/>
<path id="Vector_12" d="M68.1044 87.3385C68.1044 87.3385 70.6904 112.056 64.2256 129.103L59.4847 161.491H51.296L52.158 123.136L49.1411 89.0432C49.1411 89.0432 55.1749 73.7012 68.1044 87.3385Z" fill="#2F2E41"/>
<path id="Vector_13" d="M40.0906 89.043L48.7102 118.448L31.9019 144.871L40.3061 151.902L59.4849 122.284L53.8821 86.0598L40.0906 89.043Z" fill="#2F2E41"/>
<path id="Vector_14" d="M62.0722 23.1043C67.9184 23.1043 72.6577 18.418 72.6577 12.6372C72.6577 6.85643 67.9184 2.17017 62.0722 2.17017C56.2261 2.17017 51.4868 6.85643 51.4868 12.6372C51.4868 18.418 56.2261 23.1043 62.0722 23.1043Z" fill="#A0616A"/>
<path id="Vector_15" d="M53.2358 27.0362C53.2358 27.0362 59.7006 22.7745 67.0274 32.1502L68.9668 91.1741C68.9668 91.1741 63.364 83.5031 51.7274 90.7479C40.0908 97.9927 37.5049 89.8956 37.5049 89.8956C37.5049 89.8956 29.3162 28.9539 53.2358 27.0362Z" fill="#CCCCCC"/>
<path id="Vector_16" d="M66.5057 32.0014C68.365 32.1007 70.1215 32.8765 71.4372 34.1793C72.7529 35.4822 73.535 37.2201 73.6328 39.0588L75.0004 64.7518L84.051 89.0432L78.8792 93.3049L62.0708 64.3256L58.6295 40.5059C58.4718 39.4142 58.5608 38.3014 58.8902 37.2478C59.2196 36.1941 59.7811 35.2258 60.5343 34.4124C61.2875 33.5991 62.2138 32.961 63.2463 32.5441C64.2788 32.1272 65.392 31.9418 66.5057 32.0014V32.0014Z" fill="#CCCCCC"/>
<path id="Vector_17" d="M54.2945 20.4885C56.025 22.3113 59.2388 21.3328 59.4643 18.8426C59.482 18.6493 59.4807 18.4547 59.4605 18.2616C59.3441 17.1586 58.6996 16.1572 58.854 14.9925C58.8889 14.7027 58.9981 14.4265 59.1713 14.19C60.5503 12.3641 63.7874 15.0067 65.0888 13.3537C65.8869 12.3402 64.9488 10.7444 65.5612 9.61152C66.3695 8.11636 68.7635 8.85392 70.2648 8.0351C71.9352 7.12406 71.8352 4.58987 70.7357 3.04846C69.3947 1.16864 67.0436 0.165553 64.7218 0.0209763C62.3999 -0.1236 60.0941 0.497041 57.9264 1.33235C55.4636 2.28142 53.0212 3.59308 51.5056 5.73448C49.6625 8.33865 49.4851 11.8397 50.4069 14.8848C50.9676 16.7372 52.8814 19 54.2945 20.4885Z" fill="#2F2E41"/>
<path id="Vector_18" d="M279.487 219.819H0.513141C0.377298 219.819 0.24715 219.765 0.151234 219.67C0.0553172 219.575 0.00146484 219.446 0.00146484 219.312C0.00146484 219.178 0.0553172 219.049 0.151234 218.954C0.24715 218.858 0.377298 218.805 0.513141 218.804H279.487C279.623 218.805 279.753 218.858 279.849 218.954C279.945 219.049 279.998 219.178 279.998 219.312C279.998 219.446 279.945 219.575 279.849 219.67C279.753 219.765 279.623 219.819 279.487 219.819Z" fill="#3F3D56"/>
</g>
<defs>
<clipPath id="clip0">
<rect width="280" height="220" fill="white"/>
</clipPath>
</defs>
</svg>
