<svg width="280" height="220" viewBox="0 0 280 220" fill="none" xmlns="http://www.w3.org/2000/svg">
<g id="undraw_Savings_re_eq4w">
<path id="Vector" d="M159.512 194.629C157.576 191.987 154.955 190.053 151.66 189.33C148.787 188.699 145.832 188.807 142.911 188.828L105.98 189.106C102.818 189.13 99.785 191.8 99.9319 195C100.078 198.174 102.59 200.92 105.98 200.895C116.799 200.814 127.617 200.732 138.435 200.651C140.985 200.632 143.537 200.587 146.088 200.595C146.661 200.597 147.231 200.626 147.803 200.633C147.942 200.634 148.042 200.633 148.113 200.63C148.13 200.635 148.145 200.64 148.168 200.646C148.467 200.726 148.773 200.781 149.073 200.857C148.968 200.86 149.268 201.043 149.419 201.104C149.44 201.144 149.484 201.215 149.557 201.324C149.66 201.511 149.964 202.082 149.977 202.064C150.434 203.191 150.812 204.347 151.106 205.524C151.809 208.121 151.964 208.663 152.065 211.099C152.193 214.176 154.755 217.14 158.113 216.993C161.281 216.855 164.299 214.399 164.162 211.099C163.931 205.538 162.929 199.292 159.512 194.629Z" fill="#E6E6E6"/>
<path id="Vector_2" d="M108.15 207.93C107.456 203.834 106.776 199.735 106.069 195.64C105.351 191.487 103.886 187.684 100.569 184.958C99.6828 184.229 98.7639 183.55 97.8412 182.872C97.5167 182.633 97.1927 182.395 96.8721 182.151C96.8529 182.137 96.8407 182.127 96.8241 182.115C96.7888 182.085 96.7466 182.05 96.6897 182.003C95.3073 180.863 93.9717 179.672 92.6993 178.407C91.5695 177.282 90.489 176.11 89.4578 174.89C89.2001 174.585 88.9458 174.278 88.6947 173.968C88.6515 173.914 88.419 173.622 88.2657 173.43C88.1232 173.239 87.8628 172.894 87.819 172.833C87.5257 172.429 87.2377 172.021 86.9548 171.609C85.0283 168.797 83.3602 165.824 81.9697 162.725C81.8318 162.418 81.6972 162.109 81.5658 161.798C81.5306 161.703 81.485 161.581 81.4244 161.419C81.1442 160.668 80.8646 159.918 80.6084 159.158C80.064 157.544 79.596 155.907 79.2044 154.245C79.0108 153.425 78.8365 152.6 78.6815 151.771C78.6016 151.345 78.5268 150.918 78.4572 150.49C78.4458 150.419 78.3778 149.957 78.3378 149.697C78.3082 149.434 78.2532 148.97 78.2459 148.899C78.2016 148.467 78.1623 148.035 78.1279 147.603C78.0506 146.63 77.9983 145.656 77.971 144.68C77.9245 142.946 77.9564 141.212 78.0666 139.478C78.1294 138.504 78.2187 137.532 78.3288 136.562C78.3354 136.502 78.3406 136.455 78.3454 136.412C78.352 136.369 78.3598 136.32 78.369 136.258C78.4504 135.722 78.536 135.187 78.6318 134.654C78.9946 132.627 79.4665 130.621 80.0454 128.644C80.3195 127.708 80.6173 126.78 80.9386 125.86C81.0819 125.452 81.2297 125.045 81.382 124.639C81.372 124.666 81.8289 123.528 81.835 123.49C83.6476 119.317 86.6124 115.512 86.6165 110.771C86.6193 107.561 83.8326 104.486 80.568 104.634C78.9403 104.694 77.4 105.367 76.2717 106.512C75.1434 107.656 74.5152 109.183 74.5195 110.771C74.5195 110.843 74.5191 110.904 74.5189 110.964C74.4884 111.064 74.463 111.147 74.4401 111.221C74.0866 111.97 73.6536 112.681 73.2656 113.411C72.2031 115.409 71.2962 117.472 70.4347 119.566C69.0244 122.976 67.945 126.507 67.2104 130.113C65.6138 138.014 65.4898 146.13 66.8445 154.074C69.1897 168.004 76.9235 181.339 87.6753 190.302C88.6084 191.08 89.5641 191.832 90.529 192.568C90.9282 192.873 91.3308 193.172 91.7354 193.469C91.9267 193.61 92.7189 194.219 92.3704 193.924C93.1198 194.547 93.4353 194.86 93.6278 195.32C93.6557 195.426 93.6937 195.569 93.7452 195.766C93.8809 196.283 94.0097 196.8 94.1168 197.325C95.0526 201.912 95.7031 206.576 96.4848 211.193C97.0222 214.365 101.03 216.43 103.925 215.479C107.296 214.372 108.726 211.329 108.15 207.93Z" fill="#E6E6E6"/>
<path id="Vector_3" d="M160.123 219.828C157.583 219.834 155.144 218.858 153.341 217.114C151.538 215.37 150.519 213.001 150.506 210.525V203.802C143.283 204.59 118.546 204.407 111.456 203.297V210.256C111.437 212.73 110.415 215.096 108.613 216.838C106.812 218.581 104.377 219.559 101.838 219.559C99.3001 219.559 96.8648 218.581 95.0633 216.838C93.2618 215.096 92.2401 212.73 92.2211 210.256V196.592C82.6174 191.393 74.6114 183.79 69.0293 174.569C63.4472 165.348 60.4911 154.842 60.4663 144.136C60.4663 125.778 69.0034 108.653 83.8888 97.1523C93.5671 89.6489 105.326 85.1365 117.656 84.1944C119.329 84.0665 121.013 84.0017 122.66 84.0017C128.464 84.0017 154.649 84.8754 161.219 86.7174L176.2 72.2313C176.42 72.0154 176.701 71.8683 177.007 71.8089C177.314 71.7494 177.631 71.7801 177.92 71.8972C178.21 72.0098 178.459 72.2054 178.633 72.4584C178.808 72.7113 178.899 73.0097 178.897 73.3143V75.6176L181.814 72.8022C182.033 72.5861 182.314 72.4389 182.621 72.3793C182.927 72.3197 183.244 72.3504 183.532 72.4676C183.823 72.5802 184.072 72.7758 184.247 73.0289C184.421 73.2819 184.513 73.5804 184.51 73.8853V99.6235C192.028 106.228 197.757 114.537 201.191 123.815C204.624 133.093 205.657 143.053 204.196 152.812C202.735 162.572 198.827 171.83 192.816 179.766C186.806 187.701 178.88 194.069 169.741 198.306V210.525C169.728 213.001 168.709 215.37 166.906 217.114C165.103 218.858 162.664 219.834 160.123 219.828V219.828ZM151.262 202.966V210.525C151.281 212.803 152.223 214.982 153.883 216.586C155.543 218.19 157.786 219.091 160.123 219.091C162.461 219.091 164.704 218.19 166.364 216.586C168.023 214.982 168.965 212.803 168.985 210.525V197.84L169.2 197.741C179.456 192.998 188.161 185.579 194.351 176.306C202.239 164.474 205.519 150.281 203.598 136.295C201.678 122.31 194.683 109.457 183.88 100.062L183.754 99.9522V73.8853C183.757 73.7269 183.71 73.5715 183.619 73.4401C183.529 73.3086 183.399 73.2074 183.247 73.1501C183.097 73.0873 182.93 73.0704 182.769 73.1015C182.609 73.1326 182.461 73.2103 182.347 73.3244L178.141 77.3844V73.3143C178.143 73.1559 178.096 73.0006 178.005 72.8691C177.915 72.7377 177.785 72.6365 177.633 72.5791C177.482 72.5165 177.315 72.4997 177.155 72.531C176.994 72.5624 176.846 72.6403 176.732 72.7547L161.43 87.551L161.213 87.4846C155.105 85.6218 128.508 84.7385 122.66 84.7385C121.033 84.7385 119.369 84.8026 117.715 84.929C105.535 85.8596 93.9191 90.3172 84.3586 97.7295C69.6551 109.09 61.2223 126.005 61.2223 144.136C61.2474 154.747 64.1877 165.159 69.7375 174.288C75.2874 183.418 83.2445 190.933 92.7821 196.053L92.9772 196.158V210.256C92.9967 212.534 93.9388 214.712 95.5985 216.316C97.2582 217.92 99.5009 218.82 101.838 218.82C104.176 218.82 106.418 217.92 108.078 216.316C109.738 214.712 110.68 212.534 110.699 210.256V202.415L111.147 202.497C117.519 203.665 144.351 203.849 150.835 203.02L151.262 202.966Z" fill="#3F3D56"/>
<path id="Vector_4" d="M108.873 43.8833L67.0099 56.1437C65.6783 56.5352 64.5607 57.4258 63.9026 58.6198C63.2444 59.8139 63.0996 61.2137 63.4999 62.5117C63.9001 63.8098 64.8127 64.8999 66.0373 65.5426C67.2618 66.1853 68.698 66.3281 70.0304 65.9395L106.666 55.2079L107.433 54.9832C107.588 51.1292 108.661 47.3632 110.567 43.9828C110.328 43.8779 110.072 43.8131 109.811 43.7912C109.495 43.7614 109.177 43.7927 108.873 43.8833Z" fill="#6C63FF"/>
<path id="Vector_5" d="M69.3059 68.5531C68.7502 68.5518 68.209 68.3803 67.7587 68.0629C67.3084 67.7455 66.9719 67.2982 66.7966 66.7843L64.1788 59.0862C64.0695 58.7647 64.0262 58.4254 64.0514 58.0876C64.0767 57.7498 64.1699 57.4202 64.3259 57.1176C64.4819 56.8149 64.6975 56.5452 64.9605 56.3238C65.2235 56.1023 65.5286 55.9336 65.8585 55.8271L99.9311 44.8229C100.261 44.7163 100.609 44.6741 100.956 44.6987C101.302 44.7233 101.641 44.8141 101.951 44.9661C102.262 45.118 102.538 45.3281 102.766 45.5843C102.993 45.8405 103.166 46.1378 103.275 46.4593L105.893 54.1574C106.111 54.7905 106.067 55.4815 105.772 56.0838C105.476 56.6861 104.951 57.1526 104.308 57.3843C104.277 57.3958 104.245 57.4067 104.213 57.4169L70.141 68.4207C69.8717 68.5082 69.5898 68.5529 69.3059 68.5531Z" fill="#2F2E41"/>
<path id="Vector_6" d="M133.116 30.2119C126.239 30.2145 119.633 32.8247 114.696 37.49C109.759 42.1553 106.879 48.5096 106.665 55.2079C106.657 55.4695 106.653 55.7347 106.653 56C106.653 61.1004 108.205 66.0862 111.113 70.3271C114.021 74.5679 118.154 77.8732 122.989 79.8251C127.824 81.7769 133.145 82.2876 138.278 81.2926C143.411 80.2975 148.127 77.8414 151.827 74.2349C155.528 70.6284 158.049 66.0334 159.07 61.031C160.091 56.0286 159.567 50.8435 157.564 46.1313C155.561 41.4192 152.169 37.3916 147.817 34.558C143.466 31.7244 138.349 30.2119 133.116 30.2119V30.2119ZM133.116 81.0513C126.3 81.0443 119.766 78.4028 114.946 73.7063C110.127 69.0097 107.416 62.6419 107.409 56C107.409 55.6574 107.417 55.3184 107.432 54.9832C107.637 50.076 109.317 45.3357 112.264 41.3518C115.211 37.3678 119.295 34.3159 124.008 32.5757C128.72 30.8354 133.854 30.4834 138.77 31.5636C143.686 32.6438 148.168 35.1084 151.659 38.6511C155.149 42.1937 157.494 46.658 158.402 51.4889C159.309 56.3199 158.74 61.3042 156.764 65.8222C154.788 70.3402 151.493 74.1926 147.288 76.9002C143.084 79.6079 138.155 81.0514 133.116 81.0513V81.0513Z" fill="#3F3D56"/>
<path id="Vector_7" d="M155.42 55.9995C155.42 61.7642 153.07 67.2927 148.887 71.3689C144.704 75.4452 139.031 77.7352 133.116 77.7352C127.201 77.7352 121.528 75.4452 117.345 71.3689C113.162 67.2927 110.812 61.7642 110.812 55.9995C110.812 55.3106 110.846 54.6327 110.91 53.9622C111.448 48.3988 114.163 43.2507 118.493 39.5871C122.823 35.9235 128.435 34.0257 134.162 34.2879C139.89 34.55 145.295 36.952 149.253 40.995C153.211 45.038 155.42 50.4114 155.42 55.9995V55.9995Z" fill="#E6E6E6"/>
<path id="Vector_8" d="M139.758 57.444C139.217 56.7513 138.506 56.2027 137.69 55.8488C136.684 55.4355 135.644 55.1028 134.583 54.8541V48.9376C136.215 49.1774 137.746 49.8576 139.002 50.9012L140.234 48.3408C139.525 47.7254 138.712 47.2354 137.83 46.893C136.852 46.5073 135.826 46.2508 134.779 46.1304V43.1316H131.925V46.1599C130.823 46.2805 129.76 46.6284 128.806 47.1803C127.945 47.6772 127.22 48.3698 126.693 49.1992C126.19 50.0085 125.93 50.9388 125.941 51.8848C125.892 52.91 126.196 53.9217 126.806 54.7583C127.368 55.4827 128.109 56.0558 128.961 56.4235C129.984 56.849 131.041 57.1904 132.122 57.444V63.1137C130.196 62.9721 128.36 62.2585 126.863 61.0691L125.631 63.6331C126.468 64.3076 127.42 64.8337 128.443 65.1878C129.565 65.5789 130.737 65.817 131.925 65.8951V68.8681H134.779V65.8399C136.364 65.6711 137.851 65.0068 139.017 63.9463C139.53 63.4665 139.936 62.888 140.208 62.2475C140.48 61.607 140.612 60.9185 140.597 60.2254C140.645 59.2329 140.349 58.2535 139.758 57.444V57.444ZM132.122 54.2278C131.426 54.0224 130.78 53.6843 130.22 53.2332C129.998 53.0408 129.823 52.803 129.706 52.5367C129.59 52.2705 129.536 51.9824 129.547 51.6933C129.527 51.0371 129.774 50.3998 130.235 49.9212C130.746 49.4192 131.406 49.0855 132.122 48.9671V54.2278ZM136.375 62.0674C135.892 62.5494 135.264 62.8683 134.583 62.9774V58.0997C135.234 58.2701 135.844 58.5671 136.375 58.9729C136.576 59.1403 136.736 59.3499 136.842 59.5859C136.949 59.8218 137 60.0782 136.991 60.3359C137.017 60.9682 136.797 61.5868 136.375 62.0674V62.0674Z" fill="#6C63FF"/>
<path id="Vector_9" d="M70.5204 99.7529C69.936 99.752 69.3682 99.5631 68.9051 99.2157C68.4421 98.8683 68.1096 98.3817 67.9592 97.8314L66.5339 92.5743C66.3555 91.9135 66.4534 91.2108 66.8059 90.6202C67.1585 90.0296 67.7371 89.5994 68.4147 89.424L113.378 77.8452C114.057 77.6727 114.778 77.769 115.384 78.1132C115.989 78.4574 116.431 79.0214 116.611 79.6818L117.818 84.1358L117.592 84.1528C106.06 85.0266 95.0266 89.1011 85.7965 95.8942L85.731 95.9252L71.1917 99.668C70.9726 99.7244 70.747 99.7529 70.5204 99.7529V99.7529Z" fill="#2F2E41"/>
<path id="Vector_10" d="M63.0732 125.72C57.7987 124.961 52.7543 123.102 48.2837 120.27C46.0689 118.869 44.0185 117.235 42.1694 115.397C40.3443 113.583 38.5983 111.521 37.6943 109.105C36.8246 106.87 36.8694 104.394 37.8196 102.191C38.7568 100 40.547 98.2612 42.7978 97.3551C45.0621 96.4751 47.7977 96.381 50.0014 97.3447C51.0515 97.7932 51.9601 98.506 52.6341 99.4099C52.9474 99.8266 53.1794 100.296 53.3185 100.794C53.4475 101.246 53.4593 101.722 53.3526 102.179C53.2234 102.636 52.9955 103.06 52.6843 103.424C52.373 103.787 51.9856 104.082 51.5479 104.288C50.5848 104.769 49.5412 105.079 48.4662 105.204C47.385 105.347 45.8318 105.478 44.9626 104.632C44.7836 104.465 44.6429 104.263 44.5495 104.039C44.4842 103.867 44.4618 103.683 44.4844 103.502C44.4717 103.582 44.5368 103.328 44.5331 103.338C44.5193 103.375 44.4598 103.467 44.5444 103.326C44.5709 103.28 44.6003 103.235 44.6326 103.192C44.6038 103.229 44.5407 103.289 44.6534 103.185C44.7465 103.086 44.8662 103.014 44.999 102.977C45.0514 102.963 45.1044 102.951 45.1569 102.937C45.2903 102.901 45.024 102.939 45.1604 102.934C45.2131 102.933 45.2663 102.934 45.3188 102.932C45.4526 102.926 45.1868 102.896 45.315 102.928C45.3648 102.94 45.4142 102.952 45.4632 102.967C45.5699 103 45.3877 102.891 45.46 102.972C45.5447 103.068 45.3711 102.879 45.4673 102.972C45.5152 103.018 45.5604 103.066 45.6025 103.117C45.7694 103.278 45.9946 103.368 46.2291 103.368C46.4637 103.368 46.6888 103.278 46.8557 103.117C47.0169 102.953 47.1069 102.734 47.1069 102.506C47.1069 102.279 47.0169 102.06 46.8557 101.896C45.9819 100.84 44.2559 101.101 43.372 101.993C42.2447 103.131 42.6911 104.934 43.7877 105.927C45.029 107.051 46.7872 107.129 48.3839 106.94C49.7334 106.814 51.0485 106.452 52.266 105.871C53.4758 105.292 54.422 104.296 54.9213 103.076C55.1468 102.425 55.2278 101.734 55.1589 101.05C55.0901 100.366 54.873 99.7046 54.522 99.1086C53.1122 96.5256 50.1929 95.2014 47.3075 94.972C45.8219 94.8586 44.3279 95.0334 42.9122 95.4864C41.4964 95.9393 40.1868 96.6614 39.0592 97.6108C36.8859 99.5175 35.5476 102.165 35.3211 105.006C35.0693 107.952 36.2421 110.813 37.952 113.19C39.742 115.606 41.8782 117.759 44.2952 119.583C49.0203 123.26 54.563 125.807 60.4795 127.022C61.1832 127.163 61.8908 127.284 62.6021 127.385C62.8284 127.439 63.0671 127.406 63.2696 127.294C63.4722 127.182 63.6232 126.999 63.6921 126.782C63.7529 126.561 63.722 126.326 63.6062 126.127C63.4903 125.929 63.2989 125.782 63.0732 125.72L63.0732 125.72Z" fill="#3F3D56"/>
<path id="Vector_11" d="M147.522 88.1886C139.794 88.0824 132.09 88.2735 124.411 88.762C121.787 88.929 119.516 89.8331 119.516 91.3526C119.516 92.6231 121.769 94.1114 124.411 93.9432C132.087 93.4548 139.79 93.2637 147.522 93.3698C153.825 93.4565 153.821 88.2753 147.522 88.1886Z" fill="#CCCCCC"/>
<path id="Vector_12" d="M136.1 93.1131C135.265 93.1131 115.646 93.0827 115.646 90.4419C115.646 87.8011 135.265 87.7708 136.1 87.7708C136.935 87.7708 156.554 87.8012 156.554 90.4419C156.554 93.0827 136.935 93.1131 136.1 93.1131ZM116.414 90.4419C116.95 91.2425 124.162 92.3763 136.1 92.3763C148.039 92.3763 155.25 91.2425 155.787 90.4419C155.25 89.6414 148.039 88.5076 136.1 88.5076C124.162 88.5076 116.95 89.6414 116.414 90.4419V90.4419Z" fill="#3F3D56"/>
<path id="Vector_13" d="M198.344 162.538C202.687 162.421 208.092 162.274 212.256 159.31C213.496 158.391 214.515 157.219 215.241 155.876C215.967 154.533 216.383 153.051 216.46 151.535C216.545 149.194 215.677 147.151 214.016 145.783C211.841 143.992 208.665 143.572 205.243 144.552L208.789 119.299L206.186 118.951L202.017 148.64L204.191 147.668C206.711 146.541 210.17 145.968 212.32 147.738C212.848 148.201 213.259 148.776 213.522 149.419C213.785 150.062 213.892 150.755 213.834 151.445C213.771 152.574 213.458 153.675 212.919 154.676C212.379 155.676 211.624 156.551 210.706 157.242C207.466 159.549 203.157 159.846 198.271 159.979L198.344 162.538Z" fill="#3F3D56"/>
<path id="Vector_14" d="M191.148 121.477H176.997V124.038H191.148V121.477Z" fill="#3F3D56"/>
<path id="Vector_15" d="M76.9246 111.529C76.2948 111.527 75.6862 111.306 75.2079 110.907C74.7297 110.508 74.413 109.955 74.3147 109.349L73.4509 103.977C73.3431 103.301 73.5146 102.612 73.9279 102.059C74.3413 101.507 74.9627 101.137 75.6557 101.03L121.599 94.0148C122.292 93.9097 123 94.0769 123.567 94.4797C124.133 94.8825 124.513 95.488 124.623 96.1633L125.486 101.535C125.594 102.211 125.423 102.901 125.009 103.453C124.596 104.006 123.975 104.376 123.282 104.482L77.3386 111.497C77.2017 111.518 77.0633 111.529 76.9246 111.529Z" fill="#2F2E41"/>
<path id="Vector_16" d="M57.911 48.5752C68.5589 48.5752 77.1908 40.1633 77.1908 29.7868C77.1908 19.4102 68.5589 10.9983 57.911 10.9983C47.2632 10.9983 38.6313 19.4102 38.6313 29.7868C38.6313 40.1633 47.2632 48.5752 57.911 48.5752Z" fill="#6C63FF"/>
<path id="Vector_17" d="M68.8261 34.648C69.4423 34.438 70.0052 34.1019 70.477 33.6621C70.7891 33.3487 71.0271 32.9725 71.1743 32.5599C71.3216 32.1473 71.3745 31.7084 71.3293 31.2738C71.3031 30.9641 71.2038 30.6644 71.039 30.3983C70.8743 30.1322 70.6486 29.9068 70.3797 29.7397C69.6819 29.3216 68.76 29.3374 67.8291 29.7579L67.7217 22.4238L66.9657 22.4343L67.092 31.0563L67.6675 30.6885C68.3348 30.2626 69.2937 29.9539 69.9835 30.3674C70.1542 30.4769 70.2966 30.6232 70.3997 30.7951C70.5028 30.9669 70.5639 31.1596 70.5782 31.3582C70.61 31.682 70.5698 32.0086 70.4605 32.3159C70.3511 32.6232 70.1751 32.9039 69.9445 33.1389C69.1249 33.9314 67.9119 34.1969 66.5273 34.4398L66.6613 35.1649C67.3973 35.0559 68.1218 34.883 68.8261 34.648V34.648Z" fill="#2F2E41"/>
<path id="Vector_18" d="M75.5067 21.909L71.4805 22.5032L71.5937 23.2316L75.6199 22.6374L75.5067 21.909Z" fill="#2F2E41"/>
<path id="Vector_19" d="M62.7986 23.7847L58.7725 24.3789L58.8857 25.1073L62.9118 24.5131L62.7986 23.7847Z" fill="#2F2E41"/>
<path id="Vector_20" d="M70.6518 111.2C69.9584 111.199 69.2819 110.992 68.7123 110.606C68.1427 110.221 67.7071 109.676 67.4632 109.043L54.1704 74.3515C52.5457 70.0967 52.7192 65.3876 54.6529 61.2574C56.5865 57.1271 60.1224 53.913 64.4848 52.3202L75.2934 48.3871C75.7113 48.234 76.1562 48.1629 76.6024 48.178C77.0487 48.1931 77.4875 48.2941 77.8935 48.4751C78.2986 48.6514 78.6635 48.9047 78.9669 49.2201C79.2704 49.5354 79.5063 49.9066 79.6609 50.3118L104.285 95.6192C104.445 96.0278 104.52 96.4631 104.507 96.9002C104.493 97.3372 104.391 97.7674 104.206 98.1659C104.022 98.5644 103.758 98.9233 103.43 99.2221C103.103 99.5209 102.718 99.7536 102.298 99.9068L71.8408 110.99C71.4606 111.129 71.0578 111.2 70.6518 111.2Z" fill="#2F2E41"/>
<path id="Vector_21" d="M72.0142 49.5801L96.4461 81.4194L79.9141 49.9143C79.7775 49.5467 79.568 49.2089 79.2975 48.9202C79.027 48.6315 78.7007 48.3976 78.3374 48.2318C77.9741 48.066 77.5809 47.9716 77.1801 47.954C76.7794 47.9363 76.379 47.9958 76.0018 48.129L72.0142 49.5801Z" fill="#E6E6E6"/>
<path id="Vector_22" d="M110.699 73.7604L67.0757 71.022C66.3881 70.9788 65.7159 70.8041 65.0976 70.5078C64.4793 70.2115 63.9269 69.7994 63.472 69.2951C63.0171 68.7907 62.6686 68.204 62.4464 67.5684C62.2242 66.9328 62.1326 66.2608 62.1769 65.5907C62.2212 64.9206 62.4004 64.2656 62.7045 63.663C63.0085 63.0605 63.4314 62.5222 63.9489 62.0789C64.4665 61.6356 65.0685 61.2959 65.7207 61.0794C66.373 60.8628 67.0626 60.7736 67.7502 60.8167L111.373 63.5549C111.696 63.5751 112.01 63.6569 112.3 63.7956C112.589 63.9344 112.848 64.1274 113.061 64.3636C113.274 64.5997 113.437 64.8745 113.542 65.1722C113.646 65.4698 113.688 65.7846 113.668 66.0984L113.309 71.5246C113.267 72.1584 112.969 72.75 112.479 73.1693C111.99 73.5885 111.349 73.8012 110.699 73.7604Z" fill="#6C63FF"/>
<path id="Vector_23" d="M99.0423 75.5156C98.9847 75.5156 98.927 75.5138 98.8691 75.5102H98.869L63.048 73.2616C62.7012 73.2399 62.3622 73.1518 62.0503 73.0024C61.7385 72.853 61.4599 72.6452 61.2304 72.3908C61.001 72.1364 60.8252 71.8405 60.7131 71.52C60.6011 71.1994 60.5549 70.8605 60.5773 70.5225L61.1898 61.2542C61.2122 60.9163 61.3026 60.5859 61.456 60.282C61.6093 59.9781 61.8226 59.7066 62.0836 59.4831C62.3447 59.2595 62.6483 59.0882 62.9773 58.979C63.3063 58.8698 63.6541 58.8249 64.0009 58.8467L99.8218 61.095C100.522 61.1397 101.175 61.4532 101.638 61.9667C102.102 62.4802 102.337 63.1518 102.292 63.8341L101.68 73.1026C101.646 73.5992 101.466 74.0758 101.161 74.4751C100.856 74.8745 100.44 75.1796 99.9614 75.3538C99.6675 75.461 99.3562 75.5158 99.0423 75.5156V75.5156Z" fill="#2F2E41"/>
<path id="Vector_24" d="M57.6889 17.2929C60.2252 15.1671 63.7082 17.0688 66.6168 16.7359C69.3996 16.4174 71.5969 13.9849 72.1582 11.4006C72.8131 8.38558 71.2073 5.365 68.8404 3.4852C66.248 1.42636 62.8099 0.835317 59.5519 1.21622C55.8178 1.65277 52.4029 3.34902 49.3386 5.40072C46.3808 7.31976 43.6609 9.56588 41.2329 12.0943C39.0588 14.4342 37.2168 17.2234 36.6286 20.3721C36.094 23.2337 36.5022 26.4047 38.2381 28.8288C39.1585 30.0713 40.3921 31.0617 41.8196 31.7043C43.3081 32.4166 44.8959 32.9258 46.3379 33.7312C48.5183 34.9488 50.6375 37.4737 49.9545 40.1012C49.8081 40.6751 49.5191 41.2052 49.113 41.6447C48.6251 42.1726 47.745 41.4751 48.2342 40.9459C49.0934 40.0164 49.0596 38.7767 48.6017 37.667C48.0572 36.4165 47.093 35.3833 45.8672 34.7366C44.3577 33.8956 42.6911 33.3765 41.144 32.6104C39.6632 31.9106 38.3778 30.8725 37.3972 29.5844C35.5455 27.0767 34.9916 23.8131 35.4115 20.794C35.866 17.5269 37.5885 14.558 39.7478 12.0701C42.0978 9.36254 44.9843 7.07068 47.9332 5.01175C51.0974 2.80251 54.5932 0.93474 58.4615 0.2592C61.8147 -0.326389 65.4493 0.0341364 68.3816 1.81493C71.1186 3.47719 73.2175 6.3366 73.4262 9.53172C73.5012 10.9855 73.1773 12.4325 72.4878 13.7237C71.7984 15.015 70.7683 16.1039 69.5037 16.8784C68.206 17.6352 66.6973 17.9758 65.1903 17.8522C63.5793 17.7517 61.9667 17.271 60.3454 17.4044C59.6117 17.4478 58.9126 17.7231 58.3539 18.1886C57.7997 18.653 57.1393 17.7536 57.6889 17.2929V17.2929Z" fill="#2F2E41"/>
<path id="Vector_25" d="M279.549 220H0.449305C0.330152 219.999 0.216 219.953 0.131868 219.871C0.0477358 219.788 0.000488281 219.677 0.000488281 219.561C0.000488281 219.445 0.0477358 219.333 0.131868 219.251C0.216 219.169 0.330152 219.123 0.449305 219.122H279.549C279.668 219.122 279.783 219.169 279.867 219.251C279.952 219.333 279.999 219.445 279.999 219.561C279.999 219.677 279.952 219.789 279.867 219.871C279.783 219.953 279.668 220 279.549 220V220Z" fill="#3F3D56"/>
</g>
</svg>
