<svg
              width="120"
              height="100"
              viewBox="0 0 120 100"
              fill="none"
              xmlns="http://www.w3.org/2000/svg"
            >
              <g id="triangles" clip-path="url(#clip0)">
                <g id="lightGroup">
                  <path
                    id="light1"
                    opacity="0.7"
                    d="M47 46.268C48.3333 47.0378 48.3333 48.9623 47 49.7321L12.5 69.6506C11.1667 70.4204 9.5 69.4582 9.5 67.9186V28.0814C9.5 26.5418 11.1667 25.5796 12.5 26.3494L47 46.268Z"
                  />
                </g>
                <g id="darkGroup">
                  <path
                    id="light2"
                    d="M47 46.268C48.3333 47.0378 48.3333 48.9623 47 49.7321L12.5 69.6506C11.1667 70.4204 9.5 69.4582 9.5 67.9186V28.0814C9.5 26.5418 11.1667 25.5796 12.5 26.3494L47 46.268Z"
                    fill-opacity="0.7"
                  />
                  <path
                    id="dark1"
                    d="M67 46.268C68.3333 47.0378 68.3333 48.9623 67 49.7321L32.5 69.6506C31.1667 70.4204 29.5 69.4582 29.5 67.9186V28.0814C29.5 26.5418 31.1667 25.5796 32.5 26.3494L67 46.268Z"
                    fill-opacity="0.7"
                  />
                </g>
              </g>
              <defs>
                <clipPath id="clip0">
                  <rect width="120" height="100" fill="white" />
                </clipPath>
              </defs>
            </svg>