<svg width="200" height="200" viewBox="0 0 200 200" fill="none" xmlns="http://www.w3.org/2000/svg">
<g id="cash-faq">
<g id="offers-faq">
<path id="Vector" opacity="0.5" d="M120.027 52.8559C117.952 50.7275 114.926 49.8814 111.506 50.471C108.308 51.0239 105.106 52.8026 102.493 55.4672C101.737 56.2454 101.101 57.1373 100.608 58.1119C100.127 57.1045 99.4965 56.1796 98.7379 55.3707V55.3707C96.1712 52.656 92.9986 50.8274 89.7968 50.2278C86.3897 49.5617 83.3507 50.3711 81.2368 52.4628C79.1228 54.5546 78.2564 57.6356 78.7841 61.1397C79.2792 64.4172 80.9665 67.7181 83.5364 70.4261C88.9369 76.1251 99.715 73.9001 100.171 73.8002L100.305 73.7702L100.718 73.8668C101.174 73.9734 111.913 76.3882 117.408 70.7858C120.014 68.1211 121.763 64.8536 122.317 61.5827C122.92 58.082 122.102 54.9876 120.027 52.8559ZM98.36 70.5093C95.7542 70.8691 89.2626 71.3553 86.0412 67.9546C83.9696 65.7662 82.6146 63.1548 82.227 60.5934C81.8752 58.2618 82.3833 56.2633 83.6667 55.0043C84.1676 54.5127 84.7665 54.1377 85.4223 53.9051C86.6347 53.5043 87.929 53.4377 89.1747 53.7119C91.6632 54.1882 94.1778 55.6538 96.2493 57.8421C99.4707 61.2196 98.7932 67.8546 98.36 70.506V70.5093ZM118.916 60.9798C118.486 63.5312 117.089 66.1226 114.978 68.271C111.698 71.6018 105.207 71.0123 102.617 70.6026C102.23 67.9379 101.663 61.3129 104.943 57.9687C107.054 55.8203 109.591 54.398 112.086 53.9717C113.336 53.7196 114.629 53.8092 115.835 54.2315C116.488 54.4761 117.081 54.8625 117.574 55.364C118.832 56.653 119.307 58.6449 118.916 60.9765V60.9798Z" fill="url(#paint0_linear)"/>
<path id="Vector_2" opacity="0.5" d="M150 70.3196H50V90.7809H55.1953V150H144.805V90.7809H150V70.3196Z" fill="url(#paint1_linear)"/>
<path id="Vector_3" d="M101.229 73.0735L100.203 73.2933C99.7666 73.3866 89.4543 75.515 84.2851 70.0624C81.8291 67.471 80.2135 64.3134 79.725 61.1758C79.2168 57.8216 80.0507 54.8738 82.0702 52.872C84.0896 50.8702 86.9983 50.1107 90.2588 50.7336C93.3108 51.3165 96.3465 53.0652 98.8025 55.6599C103.968 61.1125 101.565 71.588 101.46 72.031L101.229 73.0735ZM86.0733 54.2576C85.4453 54.4803 84.8719 54.8394 84.3925 55.3102C83.1678 56.5259 82.6793 58.4245 83.0147 60.6595C83.3861 63.1076 84.6824 65.6091 86.6661 67.7042C89.7507 70.9584 95.9622 70.4921 98.4539 70.149C98.8676 67.6143 99.519 61.279 96.4345 58.0248C94.4508 55.933 92.047 54.5274 89.6627 54.0744C88.4713 53.8117 87.2332 53.8749 86.0733 54.2576V54.2576Z" fill="#6C63FF"/>
<path id="Vector_4" d="M99.7052 73.1211L99.4771 72.0753C99.3794 71.6289 97.1515 61.1135 102.409 55.7541C104.91 53.206 107.972 51.5106 111.034 50.981C114.291 50.4148 117.2 51.2242 119.177 53.2627C121.154 55.3011 121.945 58.2589 121.382 61.5898C120.854 64.7174 119.187 67.8451 116.685 70.3932C111.428 75.7525 101.151 73.4409 100.725 73.341L99.7052 73.1211ZM115.177 54.5584C114.025 54.1546 112.789 54.0685 111.594 54.3085C109.203 54.7216 106.777 56.0839 104.754 58.139C101.614 61.3399 102.148 67.6819 102.529 70.2266C105.014 70.613 111.219 71.1892 114.356 67.9916C116.376 65.9332 117.711 63.455 118.125 60.9969C118.499 58.7685 118.043 56.86 116.838 55.6242C116.366 55.1511 115.799 54.7876 115.177 54.5584V54.5584Z" fill="#6C63FF"/>
<path id="Vector_5" d="M143.671 76.5056H56.3281V148.995H143.671V76.5056Z" fill="#535461"/>
<path id="Vector_6" d="M108.226 89.4482H91.77V148.99H108.226V89.4482Z" fill="#6C63FF"/>
<path id="Vector_7" opacity="0.1" d="M143.671 72.6208H56.3281V90.7439H143.671V72.6208Z" fill="black"/>
<path id="Vector_8" d="M148.736 71.3252H51.2671V89.4483H148.736V71.3252Z" fill="#535461"/>
<path id="Vector_9" d="M108.226 71.3252H91.77V89.4483H108.226V71.3252Z" fill="#6C63FF"/>
</g>
</g>
<defs>
<linearGradient id="paint0_linear" x1="28033.1" y1="14411" x2="28033.1" y2="12612.9" gradientUnits="userSpaceOnUse">
<stop stop-color="#808080" stop-opacity="0.25"/>
<stop offset="0.54" stop-color="#808080" stop-opacity="0.12"/>
<stop offset="1" stop-color="#808080" stop-opacity="0.1"/>
</linearGradient>
<linearGradient id="paint1_linear" x1="45542" y1="58004.3" x2="45542" y2="38943.2" gradientUnits="userSpaceOnUse">
<stop stop-color="#808080" stop-opacity="0.25"/>
<stop offset="0.54" stop-color="#808080" stop-opacity="0.12"/>
<stop offset="1" stop-color="#808080" stop-opacity="0.1"/>
</linearGradient>
</defs>
</svg>
