<svg width="280" height="220" viewBox="0 0 280 220" fill="none" xmlns="http://www.w3.org/2000/svg">
<g id="undraw_happy_birthday_s72n 1" clip-path="url(#clip0)">
<g id="Group" opacity="0.5">
<path id="Vector" opacity="0.5" d="M42.5437 39.1873H41.4326V44.8969H42.5437V39.1873Z" fill="#47E6B1"/>
<path id="Vector_2" opacity="0.5" d="M45.1362 42.5459V41.5383H38.8402V42.5459H45.1362Z" fill="#47E6B1"/>
</g>
<g id="Group_2" opacity="0.5">
<path id="Vector_3" opacity="0.5" d="M82.0383 163.451H80.9272V169.161H82.0383V163.451Z" fill="#47E6B1"/>
<path id="Vector_4" opacity="0.5" d="M84.627 166.81V165.802H78.331V166.81H84.627Z" fill="#47E6B1"/>
</g>
<g id="Group_3" opacity="0.5">
<path id="Vector_5" opacity="0.5" d="M26.7556 97.1282H25.6445V102.838H26.7556V97.1282Z" fill="#47E6B1"/>
<path id="Vector_6" opacity="0.5" d="M29.3481 100.487V99.4792H23.0522V100.487H29.3481Z" fill="#47E6B1"/>
</g>
<g id="Group_4" opacity="0.5">
<path id="Vector_7" opacity="0.5" d="M221.274 0H220.163V5.70969H221.274V0Z" fill="#47E6B1"/>
<path id="Vector_8" opacity="0.5" d="M223.867 3.35867V2.35107L217.571 2.35107V3.35867L223.867 3.35867Z" fill="#47E6B1"/>
</g>
<g id="Group_5" opacity="0.5">
<path id="Vector_9" opacity="0.5" d="M33.7986 14.2002H32.6875V19.9099H33.7986V14.2002Z" fill="#47E6B1"/>
<path id="Vector_10" opacity="0.5" d="M36.3877 17.5589V16.5513H30.0917V17.5589H36.3877Z" fill="#47E6B1"/>
</g>
<path id="Vector_11" opacity="0.5" d="M55.0858 143.075C54.7798 142.954 54.5335 142.735 54.3939 142.46C54.2542 142.185 54.2309 141.873 54.3284 141.583C54.3441 141.539 54.3542 141.494 54.3584 141.447V141.447C54.3808 141.31 54.3505 141.17 54.2725 141.05C54.1946 140.931 54.0737 140.839 53.9302 140.791C53.7866 140.743 53.6292 140.741 53.4842 140.785C53.3393 140.83 53.2156 140.918 53.1339 141.036V141.036C53.1033 141.073 53.0775 141.114 53.0572 141.157C52.9236 141.434 52.6822 141.658 52.3789 141.784C52.0756 141.911 51.7316 141.932 51.4123 141.844C51.3635 141.829 51.3132 141.82 51.2621 141.816V141.816C51.1107 141.796 50.9562 141.824 50.8245 141.894C50.6927 141.965 50.5918 142.075 50.5387 142.205C50.4855 142.335 50.4832 142.478 50.5323 142.609C50.5814 142.741 50.6789 142.853 50.8083 142.927V142.927C50.8497 142.955 50.8945 142.978 50.9418 142.996C51.2478 143.118 51.494 143.336 51.6337 143.612C51.7733 143.887 51.7966 144.199 51.6992 144.488C51.6835 144.532 51.6734 144.578 51.6692 144.624V144.624C51.6468 144.762 51.6771 144.902 51.755 145.021C51.833 145.141 51.9539 145.232 52.0974 145.28C52.2409 145.329 52.3984 145.331 52.5433 145.286C52.6883 145.242 52.812 145.153 52.8937 145.036C52.9243 144.998 52.9501 144.958 52.9704 144.915C53.104 144.637 53.3454 144.414 53.6487 144.287C53.9519 144.161 54.296 144.14 54.6153 144.228C54.664 144.242 54.7144 144.251 54.7655 144.255C54.9169 144.276 55.0714 144.248 55.2031 144.177C55.3348 144.107 55.4357 143.997 55.4889 143.867C55.5421 143.737 55.5443 143.594 55.4952 143.462C55.4461 143.331 55.3487 143.219 55.2192 143.145V143.145C55.1778 143.117 55.1331 143.094 55.0858 143.075Z" fill="#4D8AF0"/>
<path id="Vector_12" opacity="0.5" d="M49.5805 197.343C49.2745 197.222 49.0282 197.003 48.8886 196.728C48.7489 196.453 48.7256 196.141 48.8231 195.851C48.8388 195.807 48.8489 195.761 48.8531 195.715V195.715C48.8755 195.577 48.8452 195.437 48.7672 195.318C48.6893 195.198 48.5684 195.107 48.4249 195.059C48.2813 195.01 48.1239 195.008 47.9789 195.053C47.834 195.098 47.7103 195.186 47.6286 195.303C47.598 195.341 47.5722 195.381 47.5519 195.424C47.4189 195.702 47.1783 195.925 46.8757 196.052C46.5732 196.18 46.2296 196.202 45.9103 196.114C45.8616 196.1 45.8112 196.091 45.7602 196.087V196.087C45.6087 196.067 45.4542 196.094 45.3225 196.165C45.1908 196.236 45.0899 196.345 45.0367 196.475C44.9835 196.605 44.9813 196.748 45.0304 196.88C45.0795 197.011 45.1769 197.123 45.3064 197.197V197.197C45.3478 197.225 45.3926 197.249 45.4399 197.267C45.7459 197.388 45.9921 197.607 46.1317 197.882C46.2714 198.157 46.2947 198.469 46.1972 198.759C46.1815 198.803 46.1714 198.849 46.1672 198.895C46.1448 199.032 46.1751 199.172 46.2531 199.292C46.331 199.411 46.4519 199.503 46.5954 199.551C46.739 199.599 46.8964 199.601 47.0414 199.557C47.1864 199.512 47.31 199.424 47.3917 199.306V199.306C47.4224 199.269 47.4481 199.228 47.4685 199.185C47.602 198.908 47.8434 198.685 48.1467 198.558C48.45 198.431 48.794 198.41 49.1133 198.499C49.1621 198.513 49.2125 198.522 49.2635 198.526C49.4149 198.546 49.5694 198.519 49.7011 198.448C49.8329 198.377 49.9338 198.268 49.987 198.137C50.0401 198.007 50.0424 197.864 49.9933 197.733C49.9442 197.602 49.8467 197.489 49.7173 197.415V197.415C49.675 197.386 49.6291 197.362 49.5805 197.343V197.343Z" fill="#4D8AF0"/>
<path id="Vector_13" opacity="0.5" d="M252.107 77.2184C251.801 77.0973 251.555 76.8784 251.415 76.6033C251.275 76.3283 251.252 76.0163 251.349 75.7267C251.365 75.6825 251.375 75.6368 251.379 75.5905C251.402 75.4532 251.372 75.3131 251.294 75.1936C251.216 75.0742 251.095 74.9827 250.951 74.9344C250.808 74.8862 250.65 74.8842 250.505 74.9287C250.36 74.9732 250.237 75.0616 250.155 75.179V75.179C250.124 75.2166 250.099 75.2572 250.078 75.3001C249.945 75.5774 249.705 75.8009 249.402 75.9281C249.1 76.0553 248.756 76.0773 248.437 75.9899C248.388 75.9757 248.338 75.9665 248.287 75.9627V75.9627C248.135 75.9424 247.981 75.9699 247.849 76.0406C247.717 76.1113 247.616 76.2209 247.563 76.3511C247.51 76.4812 247.508 76.624 247.557 76.7555C247.606 76.8869 247.703 76.9991 247.833 77.0732C247.874 77.101 247.919 77.1243 247.966 77.1428C248.272 77.2639 248.518 77.4828 248.658 77.7578C248.798 78.0329 248.821 78.3449 248.724 78.6345C248.708 78.6787 248.698 78.7244 248.694 78.7706C248.671 78.908 248.701 79.0481 248.779 79.1675C248.857 79.287 248.978 79.3785 249.122 79.4267C249.265 79.475 249.423 79.477 249.568 79.4325C249.713 79.3879 249.836 79.2995 249.918 79.1821V79.1821C249.949 79.1446 249.974 79.104 249.995 79.0611C250.128 78.7836 250.37 78.5603 250.673 78.4337C250.976 78.307 251.32 78.2859 251.64 78.3743C251.688 78.3885 251.739 78.3977 251.79 78.4015V78.4015C251.941 78.4218 252.096 78.3943 252.228 78.3236C252.359 78.2529 252.46 78.1433 252.513 78.0131C252.567 77.883 252.569 77.7402 252.52 77.6087C252.471 77.4773 252.373 77.3651 252.244 77.291V77.291C252.201 77.262 252.155 77.2376 252.107 77.2184V77.2184Z" fill="#4D8AF0"/>
<path id="Vector_14" opacity="0.5" d="M242.941 134.509C242.635 134.388 242.389 134.169 242.249 133.894C242.11 133.619 242.086 133.307 242.184 133.017C242.2 132.973 242.21 132.927 242.214 132.881C242.236 132.744 242.206 132.604 242.128 132.484C242.05 132.365 241.929 132.273 241.786 132.225C241.642 132.177 241.485 132.175 241.34 132.219C241.195 132.264 241.071 132.352 240.989 132.47V132.47C240.959 132.507 240.933 132.548 240.913 132.591C240.779 132.868 240.538 133.091 240.234 133.218C239.931 133.345 239.587 133.366 239.268 133.277C239.219 133.263 239.169 133.254 239.118 133.25V133.25C238.966 133.23 238.812 133.257 238.68 133.328C238.548 133.399 238.447 133.508 238.394 133.639C238.341 133.769 238.339 133.912 238.388 134.043C238.437 134.174 238.534 134.287 238.664 134.361C238.705 134.388 238.75 134.412 238.797 134.43C239.103 134.551 239.35 134.77 239.489 135.045C239.629 135.32 239.652 135.632 239.555 135.922C239.539 135.966 239.529 136.012 239.525 136.058V136.058C239.502 136.195 239.533 136.336 239.611 136.455C239.688 136.575 239.809 136.666 239.953 136.714C240.096 136.762 240.254 136.765 240.399 136.72C240.544 136.675 240.668 136.587 240.749 136.47V136.47C240.78 136.432 240.806 136.392 240.826 136.349C240.959 136.071 241.201 135.848 241.504 135.721C241.807 135.595 242.151 135.573 242.471 135.662C242.52 135.676 242.57 135.685 242.621 135.689C242.772 135.709 242.927 135.682 243.059 135.611C243.19 135.54 243.291 135.431 243.344 135.301C243.398 135.17 243.4 135.028 243.351 134.896C243.302 134.765 243.204 134.653 243.075 134.579V134.579C243.033 134.551 242.989 134.527 242.941 134.509Z" fill="#4D8AF0"/>
<path id="Vector_15" opacity="0.5" d="M249.771 20.3363C249.465 20.2152 249.219 19.9963 249.079 19.7212C248.94 19.4462 248.916 19.1342 249.014 18.8446C249.03 18.8004 249.04 18.7547 249.044 18.7084C249.066 18.5711 249.036 18.431 248.958 18.3116C248.88 18.1921 248.759 18.1006 248.616 18.0524C248.472 18.0041 248.315 18.0021 248.17 18.0466C248.025 18.0912 247.901 18.1795 247.819 18.2969V18.2969C247.789 18.3345 247.763 18.3751 247.743 18.418C247.609 18.6955 247.368 18.9188 247.064 19.0454C246.761 19.1721 246.417 19.1932 246.098 19.1048C246.049 19.0906 245.999 19.0814 245.948 19.0776V19.0776C245.796 19.0573 245.642 19.0848 245.51 19.1555C245.378 19.2262 245.277 19.3358 245.224 19.466C245.171 19.5961 245.169 19.7389 245.218 19.8704C245.267 20.0018 245.364 20.114 245.494 20.1881V20.1881C245.535 20.2159 245.58 20.2392 245.627 20.2577C245.933 20.3788 246.18 20.5977 246.319 20.8728C246.459 21.1478 246.482 21.4598 246.385 21.7494C246.369 21.7936 246.359 21.8393 246.355 21.8855V21.8855C246.332 22.0229 246.363 22.163 246.441 22.2824C246.519 22.4019 246.639 22.4934 246.783 22.5416C246.926 22.5899 247.084 22.5919 247.229 22.5474C247.374 22.5028 247.498 22.4145 247.579 22.2971C247.61 22.2595 247.636 22.2189 247.656 22.176C247.79 21.8985 248.031 21.6752 248.334 21.5486C248.637 21.4219 248.982 21.4008 249.301 21.4892C249.35 21.5034 249.4 21.5126 249.451 21.5164C249.602 21.5367 249.757 21.5092 249.889 21.4385C250.02 21.3678 250.121 21.2582 250.174 21.128C250.228 20.9979 250.23 20.8551 250.181 20.7236C250.132 20.5922 250.034 20.48 249.905 20.4059V20.4059C249.863 20.3781 249.819 20.3548 249.771 20.3363V20.3363Z" fill="#4D8AF0"/>
<path id="Vector_16" opacity="0.5" d="M271.199 169.221C270.893 169.1 270.646 168.881 270.507 168.606C270.367 168.331 270.344 168.019 270.441 167.729C270.457 167.685 270.467 167.64 270.471 167.593C270.494 167.456 270.463 167.316 270.385 167.196C270.307 167.077 270.186 166.985 270.043 166.937C269.899 166.889 269.742 166.887 269.597 166.931C269.452 166.976 269.328 167.064 269.247 167.182V167.182C269.216 167.219 269.19 167.26 269.17 167.303C269.036 167.58 268.795 167.804 268.492 167.93C268.188 168.057 267.844 168.078 267.525 167.99C267.476 167.975 267.426 167.966 267.375 167.962V167.962C267.224 167.942 267.069 167.97 266.937 168.04C266.806 168.111 266.705 168.221 266.651 168.351C266.598 168.481 266.596 168.624 266.645 168.755C266.694 168.887 266.792 168.999 266.921 169.073C266.963 169.101 267.007 169.124 267.055 169.142C267.361 169.264 267.607 169.482 267.746 169.758C267.886 170.033 267.909 170.345 267.812 170.634C267.796 170.678 267.786 170.724 267.782 170.77V170.77C267.76 170.908 267.79 171.048 267.868 171.167C267.946 171.287 268.067 171.378 268.21 171.426C268.354 171.475 268.511 171.477 268.656 171.432C268.801 171.388 268.925 171.299 269.006 171.182V171.182C269.037 171.144 269.063 171.104 269.083 171.061C269.217 170.783 269.458 170.56 269.761 170.433C270.065 170.307 270.409 170.286 270.728 170.374C270.777 170.388 270.827 170.397 270.878 170.401C271.03 170.421 271.184 170.394 271.316 170.323C271.448 170.253 271.549 170.143 271.602 170.013C271.655 169.883 271.657 169.74 271.608 169.608C271.559 169.477 271.461 169.365 271.332 169.291V169.291C271.291 169.263 271.246 169.24 271.199 169.221Z" fill="#4D8AF0"/>
<path id="Vector_17" opacity="0.5" d="M2.22212 80.0143C3.44936 80.0143 4.44423 79.112 4.44423 77.9991C4.44423 76.8861 3.44936 75.9839 2.22212 75.9839C0.994875 75.9839 0 76.8861 0 77.9991C0 79.112 0.994875 80.0143 2.22212 80.0143Z" fill="#F55F44"/>
<path id="Vector_18" opacity="0.5" d="M250.182 46.2191C251.409 46.2191 252.404 45.3169 252.404 44.2039C252.404 43.091 251.409 42.1887 250.182 42.1887C248.954 42.1887 247.959 43.091 247.959 44.2039C247.959 45.3169 248.954 46.2191 250.182 46.2191Z" fill="#F55F44"/>
<path id="Vector_19" opacity="0.5" d="M149.115 122.079C150.497 122.079 151.618 121.063 151.618 119.81C151.618 118.556 150.497 117.54 149.115 117.54C147.733 117.54 146.613 118.556 146.613 119.81C146.613 121.063 147.733 122.079 149.115 122.079Z" fill="#F55F44"/>
<path id="Vector_20" opacity="0.5" d="M149.115 122.079C150.497 122.079 151.618 121.063 151.618 119.81C151.618 118.556 150.497 117.54 149.115 117.54C147.733 117.54 146.613 118.556 146.613 119.81C146.613 121.063 147.733 122.079 149.115 122.079Z" fill="#F55F44"/>
<path id="Vector_21" opacity="0.5" d="M277.781 106.811C279.008 106.811 280.003 105.909 280.003 104.796C280.003 103.683 279.008 102.781 277.781 102.781C276.554 102.781 275.559 103.683 275.559 104.796C275.559 105.909 276.554 106.811 277.781 106.811Z" fill="#F55F44"/>
<path id="Vector_22" opacity="0.5" d="M98.1503 16.5724C99.5324 16.5724 100.653 15.5564 100.653 14.303C100.653 13.0497 99.5324 12.0337 98.1503 12.0337C96.7683 12.0337 95.6479 13.0497 95.6479 14.303C95.6479 15.5564 96.7683 16.5724 98.1503 16.5724Z" fill="#47E6B1"/>
<path id="Vector_23" opacity="0.5" d="M240.726 190.042C241.953 190.042 242.948 189.139 242.948 188.026C242.948 186.913 241.953 186.011 240.726 186.011C239.499 186.011 238.504 186.913 238.504 188.026C238.504 189.139 239.499 190.042 240.726 190.042Z" fill="#F55F44"/>
<path id="Vector_24" d="M102.331 115.447C101.016 119.317 102.998 123.892 106.845 125.928C108.46 126.781 110.318 127.211 111.883 128.137C115.283 130.146 116.624 133.992 117.729 137.532C118.996 141.602 120.268 145.904 119.107 149.998C118.366 152.609 116.681 154.918 115.723 157.472C114.922 159.611 114.644 161.882 114.906 164.129C115.046 165.321 115.373 166.549 116.274 167.439C117.575 168.71 119.67 168.9 121.552 169.206C125.531 169.888 129.274 171.416 132.476 173.664C135.677 175.912 138.245 178.816 139.97 182.138" stroke="url(#paint0_linear)" stroke-width="2" stroke-miterlimit="10"/>
<path id="Vector_25" d="M102.734 115.447C101.42 119.317 103.402 123.892 107.249 125.928C108.864 126.781 110.722 127.211 112.287 128.137C115.687 130.146 117.028 133.992 118.132 137.532C119.4 141.602 120.672 145.904 119.51 149.998C118.77 152.609 117.085 154.918 116.127 157.472C115.326 159.611 115.047 161.882 115.31 164.129C115.45 165.321 115.777 166.549 116.678 167.439C117.979 168.71 120.074 168.9 121.956 169.206C125.934 169.888 129.678 171.416 132.879 173.664C136.081 175.912 138.649 178.816 140.374 182.138" stroke="#535461" stroke-width="2" stroke-miterlimit="10"/>
<path id="Vector_26" d="M152.495 86.5198C149.252 90.6197 145.886 95.0283 145.609 100.069C145.185 107.812 152.015 114.145 155.064 121.389C156.386 124.58 156.984 127.98 156.823 131.385C156.662 134.791 155.745 138.132 154.127 141.208C152.639 143.998 150.517 146.77 150.79 149.859C150.947 151.744 151.988 153.46 152.826 155.193C154.881 159.539 155.778 164.262 155.443 168.98C155.109 173.699 153.552 178.279 150.9 182.35" stroke="url(#paint1_linear)" stroke-width="2" stroke-miterlimit="10"/>
<path id="Vector_27" d="M152.896 86.5198C149.656 90.6349 146.289 95.0314 146.006 100.069C145.582 107.812 152.412 114.145 155.461 121.389C156.783 124.58 157.381 127.98 157.22 131.385C157.059 134.791 156.142 138.132 154.524 141.208C153.036 143.998 150.914 146.77 151.187 149.859C151.344 151.744 152.385 153.46 153.223 155.193C155.278 159.539 156.175 164.262 155.84 168.98C155.506 173.699 153.949 178.279 151.297 182.35" stroke="#535461" stroke-width="2" stroke-miterlimit="10"/>
<path id="Vector_28" d="M197.998 123.398L199.567 134.99C199.773 136.53 199.95 138.21 199.039 139.529C198.175 140.772 196.554 141.365 195.292 142.285C191.152 145.311 191.529 151.093 192.957 155.735C194.385 160.377 196.44 165.363 194.455 169.829C193.634 171.672 192.186 173.224 191.118 174.955C189.287 177.912 188.561 181.329 189.05 184.692" stroke="url(#paint2_linear)" stroke-width="2" stroke-miterlimit="10"/>
<path id="Vector_29" d="M198.389 123.398L199.957 134.99C200.164 136.53 200.341 138.21 199.43 139.529C198.566 140.772 196.944 141.365 195.683 142.285C191.542 145.311 191.92 151.093 193.348 155.735C194.776 160.377 196.831 165.363 194.846 169.829C194.025 171.672 192.577 173.224 191.509 174.955C189.677 177.912 188.952 181.329 189.44 184.692" stroke="#535461" stroke-width="2" stroke-miterlimit="10"/>
<g id="Group_6" opacity="0.7">
<path id="Vector_30" opacity="0.7" d="M238.661 75.754C238.658 70.331 237.241 64.9855 234.524 60.1544C231.807 55.3233 227.869 51.1436 223.03 47.957C218.192 44.7703 212.591 42.6671 206.684 41.8192C200.778 40.9713 194.734 41.4028 189.047 43.0784C189.36 41.1476 189.522 39.1991 189.531 37.2476C189.546 28.3412 185.746 19.7777 178.932 13.3632C172.119 6.94878 162.825 3.18487 153.01 2.86539C143.196 2.54591 133.628 5.69584 126.325 11.6508C119.022 17.6058 114.555 25.9002 113.865 34.7846C108.177 33.1055 102.13 32.6713 96.2212 33.5177C90.3119 34.3641 84.7076 36.467 79.8664 39.6544C75.0252 42.8418 71.0847 47.0231 68.3673 51.8565C65.6499 56.6899 64.2326 62.0379 64.2314 67.4633C64.2314 84.7104 78.2448 109.219 96.4788 113.561L99.3182 115.032L97.7767 119.822H106.905L104.924 115.026L107.75 113.561C121.85 110.206 133.411 94.8014 137.938 80.0264C140.417 81.5227 143.146 82.6466 146.019 83.3548L148.859 84.8254L147.341 89.6031H156.469L154.487 84.8072L157.313 83.3427C159.408 82.8317 161.425 82.0888 163.319 81.1309C165.758 97.7062 178.734 117.943 195.153 121.849L197.992 123.32L196.451 128.109H205.579L203.591 123.314L206.417 121.849C224.664 117.507 238.661 92.989 238.661 75.754Z" fill="url(#paint3_linear)"/>
</g>
<path id="Vector_31" d="M108.357 118.049H99.5215L101.07 113.244H106.368L108.357 118.049Z" fill="#F55F44"/>
<path id="Vector_32" d="M140.374 67.3846C140.374 85.7451 123.961 112.641 103.719 112.641C83.4763 112.641 67.064 85.7421 67.064 67.3846C67.064 58.568 70.926 50.1125 77.8004 43.8782C84.6749 37.644 93.9986 34.1416 103.721 34.1416C113.442 34.1416 122.766 37.644 129.641 43.8782C136.515 50.1125 140.377 58.568 140.377 67.3846H140.374Z" fill="#F55F44"/>
<path id="Vector_33" d="M106.368 113.443H101.07L97.9766 111.843H109.461L106.368 113.443Z" fill="#535461"/>
<path id="Vector_34" opacity="0.1" d="M90.4696 41.5503C90.4696 41.5503 75.0115 49.1602 72.8027 64.38Z" fill="white"/>
<path id="Vector_35" d="M156.292 88.8255H147.457L149.005 84.0205H154.304L156.292 88.8255Z" fill="#4D8AF0"/>
<path id="Vector_36" d="M188.309 38.1614C188.309 56.522 171.897 83.4183 151.654 83.4183C131.412 83.4183 115 56.519 115 38.1614C115 29.3448 118.862 20.8894 125.736 14.6551C132.61 8.42083 141.934 4.91846 151.656 4.91846C161.378 4.91846 170.702 8.42083 177.576 14.6551C184.451 20.8894 188.313 29.3448 188.313 38.1614H188.309Z" fill="#6C63FF"/>
<path id="Vector_37" d="M154.304 84.2201H149.006L145.913 82.6165H157.397L154.304 84.2201Z" fill="#535461"/>
<path id="Vector_38" opacity="0.1" d="M138.405 12.3271C138.405 12.3271 122.947 19.937 120.738 35.1568Z" fill="white"/>
<path id="Vector_39" d="M203.824 126.088H194.989L196.537 121.28H201.835L203.824 126.088Z" fill="#3AD29F"/>
<path id="Vector_40" d="M235.841 75.4212C235.841 93.7818 219.429 120.678 199.187 120.678C178.944 120.678 162.528 93.7818 162.528 75.4212C162.528 66.6046 166.39 58.1491 173.265 51.9149C180.139 45.6806 189.463 42.1782 199.185 42.1782C208.907 42.1782 218.231 45.6806 225.105 51.9149C231.979 58.1491 235.841 66.6046 235.841 75.4212V75.4212Z" fill="#3AD29F"/>
<path id="Vector_41" d="M201.835 121.48H196.537L193.444 119.879H204.928L201.835 121.48Z" fill="#535461"/>
<path id="Vector_42" opacity="0.1" d="M185.937 49.5869C185.937 49.5869 170.479 57.1968 168.27 72.4166Z" fill="white"/>
<g id="Group_7" opacity="0.5">
<path id="Vector_43" opacity="0.5" d="M172.301 131.753C170.175 129.819 167.076 129.05 163.572 129.586C160.296 130.088 157.016 131.704 154.34 134.125C153.565 134.832 152.914 135.642 152.409 136.527C151.917 135.612 151.27 134.772 150.493 134.037V134.037C147.864 131.571 144.614 129.91 141.335 129.365C137.845 128.76 134.732 129.495 132.566 131.395C130.401 133.296 129.513 136.095 130.054 139.278C130.561 142.255 132.289 145.254 134.922 147.714C140.454 152.891 151.494 150.87 151.961 150.779L152.098 150.752L152.522 150.839C152.989 150.936 163.99 153.13 169.618 148.04C172.287 145.62 174.079 142.651 174.646 139.68C175.264 136.5 174.426 133.689 172.301 131.753ZM150.106 147.789C147.437 148.116 140.787 148.558 137.488 145.468C135.366 143.481 133.978 141.108 133.581 138.781C133.22 136.663 133.741 134.848 135.055 133.704C135.568 133.258 136.182 132.917 136.854 132.706C138.096 132.342 139.421 132.281 140.697 132.53C143.246 132.963 145.822 134.294 147.944 136.282C151.244 139.35 150.55 145.378 150.106 147.786V147.789ZM171.163 139.132C170.723 141.45 169.291 143.804 167.129 145.756C163.769 148.782 157.12 148.246 154.467 147.874C154.07 145.453 153.49 139.435 156.849 136.397C159.011 134.445 161.611 133.153 164.166 132.766C165.447 132.537 166.772 132.619 168.007 133.002C168.676 133.224 169.283 133.575 169.788 134.031C171.076 135.202 171.563 137.011 171.163 139.129V139.132Z" fill="url(#paint4_linear)"/>
</g>
<path id="Vector_44" d="M153.046 150.119L151.995 150.319C151.548 150.403 140.984 152.337 135.689 147.384C133.173 145.03 131.519 142.161 131.018 139.311C130.498 136.264 131.352 133.586 133.42 131.768C135.489 129.949 138.468 129.259 141.808 129.825C144.935 130.355 148.044 131.943 150.56 134.3C155.852 139.253 153.389 148.77 153.283 149.172L153.046 150.119ZM137.521 133.026C136.878 133.229 136.29 133.555 135.799 133.982C134.545 135.087 134.044 136.812 134.388 138.842C134.768 141.066 136.096 143.338 138.128 145.241C141.288 148.198 147.651 147.774 150.203 147.462C150.627 145.16 151.294 139.405 148.134 136.448C146.102 134.548 143.64 133.271 141.198 132.86C139.977 132.621 138.709 132.679 137.521 133.026V133.026Z" fill="#6C63FF"/>
<path id="Vector_45" d="M151.484 150.161L151.25 149.211C151.15 148.806 148.868 139.253 154.253 134.385C156.816 132.07 159.952 130.53 163.088 130.049C166.425 129.535 169.404 130.27 171.43 132.122C173.455 133.973 174.266 136.66 173.688 139.686C173.148 142.527 171.44 145.369 168.877 147.683C163.492 152.552 152.965 150.452 152.528 150.361L151.484 150.161ZM167.332 133.299C166.152 132.932 164.886 132.854 163.662 133.072C161.213 133.447 158.727 134.684 156.655 136.551C153.439 139.459 153.986 145.22 154.377 147.532C156.922 147.883 163.278 148.406 166.492 145.502C168.56 143.632 169.928 141.381 170.352 139.147C170.736 137.123 170.268 135.389 169.034 134.267C168.55 133.837 167.97 133.507 167.332 133.299V133.299Z" fill="#6C63FF"/>
<g id="Group_8" opacity="0.5">
<path id="Vector_46" opacity="0.5" d="M203.004 147.617H100.569V166.204H105.891V220H197.682V166.204H203.004V147.617Z" fill="url(#paint5_linear)"/>
</g>
<path id="Vector_47" d="M196.52 153.236H107.052V219.086H196.52V153.236Z" fill="#535461"/>
<path id="Vector_48" d="M160.213 164.994H143.356V219.083H160.213V164.994Z" fill="#6C63FF"/>
<path id="Vector_49" opacity="0.1" d="M196.52 149.708H107.052V166.171H196.52V149.708Z" fill="black"/>
<path id="Vector_50" d="M201.709 148.531H101.867V164.994H201.709V148.531Z" fill="#535461"/>
<path id="Vector_51" d="M160.213 148.531H143.356V164.994H160.213V148.531Z" fill="#6C63FF"/>
</g>
<defs>
<linearGradient id="paint0_linear" x1="101.59" y1="148.8" x2="140.27" y2="148.8" gradientUnits="userSpaceOnUse">
<stop stop-color="#808080" stop-opacity="0.25"/>
<stop offset="0.54" stop-color="#808080" stop-opacity="0.12"/>
<stop offset="1" stop-color="#808080" stop-opacity="0.1"/>
</linearGradient>
<linearGradient id="paint1_linear" x1="7078.32" y1="50945.5" x2="7480.83" y2="50945.5" gradientUnits="userSpaceOnUse">
<stop stop-color="#808080" stop-opacity="0.25"/>
<stop offset="0.54" stop-color="#808080" stop-opacity="0.12"/>
<stop offset="1" stop-color="#808080" stop-opacity="0.1"/>
</linearGradient>
<linearGradient id="paint2_linear" x1="8263.67" y1="36627.5" x2="8637.79" y2="36627.5" gradientUnits="userSpaceOnUse">
<stop stop-color="#808080" stop-opacity="0.25"/>
<stop offset="0.54" stop-color="#808080" stop-opacity="0.12"/>
<stop offset="1" stop-color="#808080" stop-opacity="0.1"/>
</linearGradient>
<linearGradient id="paint3_linear" x1="110708" y1="63869.8" x2="110708" y2="12030.9" gradientUnits="userSpaceOnUse">
<stop stop-color="#808080" stop-opacity="0.25"/>
<stop offset="0.54" stop-color="#808080" stop-opacity="0.12"/>
<stop offset="1" stop-color="#808080" stop-opacity="0.1"/>
</linearGradient>
<linearGradient id="paint4_linear" x1="28764.8" y1="13175" x2="28764.8" y2="11541.5" gradientUnits="userSpaceOnUse">
<stop stop-color="#808080" stop-opacity="0.25"/>
<stop offset="0.54" stop-color="#808080" stop-opacity="0.12"/>
<stop offset="1" stop-color="#808080" stop-opacity="0.1"/>
</linearGradient>
<linearGradient id="paint5_linear" x1="46700" y1="52776" x2="46700" y2="35460.5" gradientUnits="userSpaceOnUse">
<stop stop-color="#808080" stop-opacity="0.25"/>
<stop offset="0.54" stop-color="#808080" stop-opacity="0.12"/>
<stop offset="1" stop-color="#808080" stop-opacity="0.1"/>
</linearGradient>
<clipPath id="clip0">
<rect width="280" height="220" fill="white"/>
</clipPath>
</defs>
</svg>
